<svg width="28" height="28" viewBox="0 0 28 28" fill="none" xmlns="http://www.w3.org/2000/svg">
<path d="M5.3335 7.33333V19.5833C5.3335 20.872 6.37817 21.9167 7.66683 21.9167H19.9168C21.2055 21.9167 22.2502 20.872 22.2502 19.5833V7.33333C22.2502 6.04467 21.2055 5 19.9168 5H7.66683C6.37817 5 5.3335 6.04467 5.3335 7.33333Z" stroke="#66455B" stroke-width="2" stroke-linecap="square" stroke-linejoin="round"/>
<path d="M9.91667 9.33333C9.91667 9.6555 9.6555 9.91667 9.33333 9.91667C9.01117 9.91667 8.75 9.6555 8.75 9.33333C8.75 9.01117 9.01117 8.75 9.33333 8.75C9.6555 8.75 9.91667 9.01117 9.91667 9.33333Z" stroke="#66455B" stroke-width="1.5" stroke-linecap="square" stroke-linejoin="round"/>
<path d="M9.91667 13.9998C9.91667 14.322 9.6555 14.5832 9.33333 14.5832C9.01117 14.5832 8.75 14.322 8.75 13.9998C8.75 13.6777 9.01117 13.4165 9.33333 13.4165C9.6555 13.4165 9.91667 13.6777 9.91667 13.9998Z" stroke="#66455B" stroke-width="1.5" stroke-linecap="square" stroke-linejoin="round"/>
<path d="M14.5834 9.33333C14.5834 9.6555 14.3222 9.91667 14.0001 9.91667C13.6779 9.91667 13.4167 9.6555 13.4167 9.33333C13.4167 9.01117 13.6779 8.75 14.0001 8.75C14.3222 8.75 14.5834 9.01117 14.5834 9.33333Z" stroke="#66455B" stroke-width="1.5" stroke-linecap="square" stroke-linejoin="round"/>
<path d="M14.5834 13.9998C14.5834 14.322 14.3222 14.5832 14.0001 14.5832C13.6779 14.5832 13.4167 14.322 13.4167 13.9998C13.4167 13.6777 13.6779 13.4165 14.0001 13.4165C14.3222 13.4165 14.5834 13.6777 14.5834 13.9998Z" stroke="#66455B" stroke-width="1.5" stroke-linecap="square" stroke-linejoin="round"/>
<path d="M19.2499 9.33333C19.2499 9.6555 18.9888 9.91667 18.6666 9.91667C18.3444 9.91667 18.0833 9.6555 18.0833 9.33333C18.0833 9.01117 18.3444 8.75 18.6666 8.75C18.9888 8.75 19.2499 9.01117 19.2499 9.33333Z" stroke="#66455B" stroke-width="1.5" stroke-linecap="square" stroke-linejoin="round"/>
<path d="M19.2499 13.9998C19.2499 14.322 18.9888 14.5832 18.6666 14.5832C18.3444 14.5832 18.0833 14.322 18.0833 13.9998C18.0833 13.6777 18.3444 13.4165 18.6666 13.4165C18.9888 13.4165 19.2499 13.6777 19.2499 13.9998Z" stroke="#66455B" stroke-width="1.5" stroke-linecap="square" stroke-linejoin="round"/>
<path d="M9.04175 18.9585H18.9584" stroke="#66455B" stroke-width="1.5" stroke-linecap="square" stroke-linejoin="round"/>
</svg>
