<svg width="40" height="40" viewBox="0 0 40 40" fill="none" xmlns="http://www.w3.org/2000/svg">
<rect width="40" height="40" rx="20" fill="url(#paint0_linear_10_6)"/>
<path d="M12.5 27V13C12.5 13 12.5 13.3708 12.5 14.1125C12.5 14.8542 12.5 15.8167 12.5 17V23C12.5 24.1833 12.5 25.1458 12.5 25.8875C12.5 26.6292 12.5 27 12.5 27ZM12.5 29C11.95 29 11.4792 28.8042 11.0875 28.4125C10.6958 28.0208 10.5 27.55 10.5 27V13C10.5 12.45 10.6958 11.9792 11.0875 11.5875C11.4792 11.1958 11.95 11 12.5 11H26.5C27.05 11 27.5208 11.1958 27.9125 11.5875C28.3042 11.9792 28.5 12.45 28.5 13V15.5H26.5V13H12.5V27H26.5V24.5H28.5V27C28.5 27.55 28.3042 28.0208 27.9125 28.4125C27.5208 28.8042 27.05 29 26.5 29H12.5ZM20.5 25C19.95 25 19.4792 24.8042 19.0875 24.4125C18.6958 24.0208 18.5 23.55 18.5 23V17C18.5 16.45 18.6958 15.9792 19.0875 15.5875C19.4792 15.1958 19.95 15 20.5 15H27.5C28.05 15 28.5208 15.1958 28.9125 15.5875C29.3042 15.9792 29.5 16.45 29.5 17V23C29.5 23.55 29.3042 24.0208 28.9125 24.4125C28.5208 24.8042 28.05 25 27.5 25H20.5ZM27.5 23V17H20.5V23H27.5ZM23.5 21.5C23.9167 21.5 24.2708 21.3542 24.5625 21.0625C24.8542 20.7708 25 20.4167 25 20C25 19.5833 24.8542 19.2292 24.5625 18.9375C24.2708 18.6458 23.9167 18.5 23.5 18.5C23.0833 18.5 22.7292 18.6458 22.4375 18.9375C22.1458 19.2292 22 19.5833 22 20C22 20.4167 22.1458 20.7708 22.4375 21.0625C22.7292 21.3542 23.0833 21.5 23.5 21.5Z" fill="#FFEEFB"/>
<defs>
<linearGradient id="paint0_linear_10_6" x1="0" y1="0" x2="40" y2="40" gradientUnits="userSpaceOnUse">
<stop stop-color="#715172"/>
<stop offset="1" stop-color="#644566"/>
</linearGradient>
</defs>
</svg>
